<svg width="70" height="70" viewBox="0 0 70 70" fill="none" xmlns="http://www.w3.org/2000/svg">
<path d="M35 8.40283C34.419 8.40274 33.838 8.5504 33.3197 8.8458L12.8871 20.4806C11.8469 21.0735 11.2 22.1788 11.2 23.3667V46.6349C11.2 47.8214 11.8462 48.9274 12.8871 49.521L33.3197 61.1544C33.837 61.4505 34.4176 61.5987 34.9986 61.5987C35.5789 61.5987 36.1602 61.4512 36.6775 61.1558L57.1128 49.521C58.153 48.9274 58.8 47.8207 58.8 46.6335V23.3653C58.8 22.1774 58.1537 21.0721 57.1128 20.4806L36.6789 8.8458C36.1616 8.55005 35.5809 8.40292 35 8.40283ZM34.9986 9.80146C35.3395 9.80146 35.6819 9.88763 35.9857 10.0612L56.421 21.696C57.0251 22.0397 57.4 22.68 57.4 23.3653V46.6335C57.4 47.3195 57.0238 47.9598 56.4197 48.3042L35.9843 59.939C35.376 60.2862 34.6211 60.2862 34.0128 59.939L13.5789 48.3056C12.9755 47.9612 12.6 47.3202 12.6 46.6349V23.3667C12.6 22.6807 12.9754 22.0397 13.5802 21.696L34.0128 10.0612C34.3166 9.88763 34.6577 9.80146 34.9986 9.80146ZM34.9781 11.5474C34.9327 11.5525 34.888 11.5658 34.8455 11.5897L32.8152 12.73C32.6472 12.8245 32.5874 13.0371 32.6826 13.2058C32.7463 13.3199 32.865 13.3849 32.9875 13.3849C33.0456 13.3849 33.1038 13.3712 33.1584 13.3397L35.1886 12.1995C35.3566 12.105 35.4178 11.8911 35.3226 11.7224C35.2523 11.5964 35.1141 11.5319 34.9781 11.5474ZM31.8103 13.3247C31.765 13.3299 31.7202 13.3445 31.6777 13.3685L24.8609 17.1952C24.6929 17.2897 24.6317 17.5023 24.7269 17.671C24.7906 17.7851 24.9107 17.8501 25.0332 17.8501C25.0913 17.8501 25.1495 17.8358 25.2041 17.805L32.0209 13.9782C32.1889 13.8837 32.25 13.6698 32.1548 13.5011C32.0845 13.3745 31.9463 13.3091 31.8103 13.3247ZM34.9794 18.1687C25.6988 18.1687 18.148 25.7195 18.148 35.0001C18.148 44.2814 25.6988 51.8315 34.9794 51.8315C41.0071 51.8315 46.6117 48.5695 49.607 43.3181C49.6539 43.2362 49.665 43.139 49.6398 43.0487C49.6146 42.9584 49.5535 42.8823 49.4716 42.8368L42.2474 38.8624C42.0822 38.7721 41.873 38.8271 41.7771 38.9909C40.3603 41.3954 37.7549 42.8901 34.9794 42.8901C30.6296 42.8901 27.0894 39.3513 27.0894 35.0001C27.0894 30.6503 30.6289 27.1101 34.9794 27.1101C37.7409 27.1101 40.2556 28.5249 41.706 30.8944C41.8061 31.0575 42.0167 31.1085 42.1791 31.0161L49.3404 26.9241C49.4216 26.8772 49.482 26.7998 49.5058 26.7095C49.5296 26.6185 49.5158 26.522 49.4689 26.4415C46.4463 21.3392 40.8937 18.1687 34.9794 18.1687ZM34.9794 18.8687C40.529 18.8687 45.747 21.7817 48.6814 26.4948L42.1203 30.2437C40.5187 27.8364 37.8739 26.4101 34.9794 26.4101C30.2432 26.4101 26.3894 30.2639 26.3894 35.0001C26.3894 39.7363 30.2425 43.5901 34.9794 43.5901C37.8886 43.5901 40.6232 42.0841 42.1996 39.6362L48.8181 43.2771C45.9075 48.1309 40.6382 51.1315 34.9794 51.1315C26.0852 51.1315 18.848 43.895 18.848 35.0001C18.848 26.1059 26.0852 18.8687 34.9794 18.8687ZM21.9242 18.8755C21.8788 18.8807 21.8341 18.8939 21.7916 18.9179L14.1941 23.1821C14.0842 23.2437 14.0164 23.3603 14.0164 23.487V44.2751C14.0164 44.4683 14.1732 44.6251 14.3664 44.6251C14.5603 44.6251 14.7157 44.4683 14.7164 44.2751V23.6921L22.1347 19.5276C22.3027 19.4331 22.3625 19.2206 22.2673 19.0519C22.197 18.9253 22.0602 18.8599 21.9242 18.8755ZM34.9794 20.2687C26.8566 20.2687 20.248 26.8773 20.248 35.0001C20.248 41.1832 24.1598 46.753 29.981 48.8593C30.0202 48.8733 30.0601 48.8798 30.1 48.8798C30.2428 48.8798 30.3776 48.7915 30.4294 48.6487C30.4959 48.4667 30.4009 48.2661 30.2189 48.2003C24.6735 46.1934 20.948 40.8892 20.948 35.0001C20.948 27.263 27.2423 20.9687 34.9794 20.9687C35.1726 20.9687 35.3294 20.8119 35.3294 20.6187C35.3294 20.4255 35.1726 20.2687 34.9794 20.2687ZM38.5369 20.7376C38.4018 20.7564 38.2857 20.8558 38.2484 20.996C38.1987 21.1829 38.3103 21.3756 38.4972 21.4239C41.37 22.1771 43.9856 23.8577 45.8623 26.1558C45.9323 26.2405 46.0315 26.2843 46.133 26.2843C46.2114 26.2843 46.29 26.2588 46.3544 26.2063C46.5042 26.0838 46.5268 25.8626 46.405 25.7128C44.4352 23.3006 41.6905 21.5375 38.6763 20.7472C38.6291 20.7339 38.5819 20.7313 38.5369 20.7376ZM55.6335 23.137C55.4403 23.137 55.2835 23.2938 55.2835 23.487V46.3081L45.8527 51.6019C45.6847 51.6964 45.6249 51.9089 45.7201 52.0776C45.7838 52.1917 45.9025 52.2567 46.025 52.2567C46.0831 52.2567 46.142 52.2431 46.1959 52.213L55.8044 46.8194C55.9143 46.7578 55.9835 46.6413 55.9835 46.5146V23.487C55.9835 23.2938 55.8267 23.137 55.6335 23.137ZM32.3531 48.7854C32.1648 48.7497 31.9807 48.874 31.9443 49.0644C31.9079 49.2541 32.0321 49.4367 32.2218 49.4731C33.1262 49.6446 34.0547 49.7315 34.9794 49.7315C35.1726 49.7315 35.3294 49.5761 35.3294 49.3829C35.3294 49.1897 35.1726 49.0329 34.9794 49.0329C34.0981 49.0329 33.2141 48.9485 32.3531 48.7854ZM43.7978 52.7858C43.7525 52.791 43.7077 52.8056 43.6652 52.8296L40.0777 54.8435C39.9097 54.938 39.8499 55.1505 39.9451 55.3192C40.0088 55.4333 40.1275 55.4983 40.25 55.4983C40.3081 55.4983 40.3663 55.4847 40.4209 55.4532L44.0084 53.4394C44.1764 53.3449 44.2375 53.1309 44.1423 52.9622C44.072 52.8357 43.9338 52.7702 43.7978 52.7858Z" fill="#5C7AFF" fill-opacity="0.5"/>
</svg>
