<svg width="70" height="70" viewBox="0 0 70 70" fill="none" xmlns="http://www.w3.org/2000/svg">
<path d="M39.4625 0C43.3125 8.90859 25.6594 14.4102 24.0188 21.8312C22.5149 28.6508 34.5078 36.575 34.5188 36.575C32.6977 33.7531 31.3578 31.4289 29.5313 27.0375C26.4414 19.6109 48.3492 12.8898 39.4625 0ZM51.1875 12.3375C51.1875 12.3375 35.7 13.3328 34.9125 23.2312C34.5625 27.6391 38.9867 29.9578 39.1125 33.1625C39.2164 35.782 36.4875 37.975 36.4875 37.975C36.4875 37.975 41.4531 37.0289 43.0063 33.0312C44.7289 28.5961 39.6485 25.5992 40.1625 22.05C40.6547 18.6539 51.1875 12.3375 51.1875 12.3375ZM26.8625 35.2187C26.8625 35.2187 12.6875 35.0164 12.6875 39.025C12.6875 43.2141 31.243 43.5258 44.4938 40.95C44.4938 40.95 48.0156 38.5273 48.9563 37.625C40.2719 39.3969 20.475 39.5937 20.475 38.0625C20.475 36.6516 26.8625 35.2187 26.8625 35.2187ZM54.1188 35.2187C52.7297 35.3281 51.2313 35.8641 49.875 36.8375C53.0688 36.1484 55.7813 38.1281 55.7813 40.3812C55.7813 45.4562 48.4313 50.225 48.4313 50.225C48.4313 50.225 59.8063 48.9344 59.8063 40.6C59.8063 36.8156 57.1758 34.9781 54.1188 35.2187ZM23.45 43.0062C21.2735 43.0062 18.025 44.7125 18.025 46.3312C18.025 49.5852 34.3875 52.0898 46.5063 47.3375L42.3063 44.7562C34.0922 47.3867 18.9656 46.5281 23.45 43.0062ZM25.4625 50.3125C22.4821 50.3125 20.5188 52.1117 20.5188 53.4625C20.5188 57.6406 38.3196 58.0617 45.3688 53.8125L40.9063 50.9687C35.6399 53.1945 22.4219 53.5336 25.4625 50.3125ZM15.5313 54.075C10.675 53.9766 7.52502 56.1586 7.52502 57.9687C7.52502 67.5937 57.225 67.1508 57.225 57.3125C57.225 55.6773 55.3383 54.8844 54.6438 54.5125C58.7071 63.9187 13.9563 63.1695 13.9563 57.6187C13.9563 56.3555 17.2485 55.1469 20.3 55.7375L17.7188 54.25C16.9586 54.1352 16.2258 54.0914 15.5313 54.075ZM62.475 60.55C54.9172 67.7141 35.7656 70.3117 16.4938 65.8875C35.7602 73.7734 62.3821 69.3492 62.475 60.55Z" fill="#5C7AFF" fill-opacity="0.5"/>
</svg>
