<svg width="70" height="70" viewBox="0 0 70 70" fill="none" xmlns="http://www.w3.org/2000/svg">
<path d="M33.6641 16.4455C31.2827 12.8741 30.7679 8.10097 30.6556 6.13951C24.6064 7.44763 18.5966 9.79409 18.9437 11.5222C18.9875 11.7395 19.2616 12.0005 19.7166 12.2543L19.005 13.5274C18.1358 13.0403 17.6473 12.4789 17.5145 11.808C17.1223 9.85242 19.3375 8.08347 24.2841 6.39909C27.6616 5.24847 31.0683 4.56159 31.2127 4.53389L32.0833 4.35889V5.24993C32.0833 5.31118 32.1212 11.5033 34.8775 15.6376L33.6641 16.4455Z" fill="#5C7AFF" fill-opacity="0.5"/>
<path d="M36.0952 62.7081H35.7291C23.7825 62.7081 10.4869 58.9559 8.91624 52.6763C7.95811 48.8409 11.0921 44.6029 17.9783 40.4248L18.7366 41.6702C12.5402 45.4313 9.55499 49.2127 10.3323 52.3234C11.6958 57.7746 24.2958 61.1725 35.3471 61.2484C36.661 59.284 43.7208 47.7442 39.6914 32.2669L41.1016 31.8994C45.6939 49.5336 36.4087 62.2867 36.3154 62.4136L36.0952 62.7081Z" fill="#5C7AFF" fill-opacity="0.5"/>
<path d="M14.4827 57.321C13.6967 57.321 13.3073 57.235 13.2432 57.2189C12.9865 57.1562 12.7852 56.9593 12.7152 56.7056C12.6438 56.4518 12.7167 56.1791 12.9034 55.9939C13.0084 55.8889 23.399 45.4823 24.8019 37.0677L26.2398 37.3068C25.0338 44.546 17.9054 52.7987 15.0748 55.8379C17.9025 55.676 25.0425 54.3518 38.7494 46.6795C28.0525 45.507 26.3609 36.9437 26.3434 36.8518L27.7769 36.5879C27.8454 36.9466 29.5648 45.3539 41.2577 45.3539C41.2621 45.3539 41.265 45.3539 41.2694 45.3539C41.6004 45.3539 41.8877 45.5756 41.9723 45.8935C42.0598 46.2114 41.9198 46.5483 41.6354 46.7146C25.2511 56.2068 17.3061 57.3195 14.4827 57.321Z" fill="#5C7AFF" fill-opacity="0.5"/>
<path d="M21.1808 60.8122C20.879 60.8122 20.6048 60.6255 20.4983 60.3382C20.3831 60.0305 20.4881 59.6819 20.7565 59.4894C20.806 59.453 23.4004 57.5382 26.161 53.3236C25.0994 52.854 24.0246 52.3057 22.9585 51.6655C21.6635 50.8882 20.685 50.054 19.9544 49.1995C16.2065 50.1882 12.7473 50.579 9.70959 50.3209L9.83209 48.8684C12.5679 49.1003 15.6785 48.7765 19.0502 47.9351C16.7563 44.0151 18.8621 40.1243 18.8913 40.0718L20.1658 40.782C20.0681 40.9599 18.321 44.2382 20.529 47.5384C23.7388 46.6167 27.1629 45.2532 30.7067 43.4813C31.5219 40.8053 32.1592 37.7618 32.4931 34.3288C32.5165 34.0941 32.6506 33.8855 32.8548 33.7674C33.059 33.6493 33.3083 33.6391 33.5227 33.7368C33.5694 33.7586 38.2827 35.9111 41.6952 37.3155C41.9431 37.4176 42.1152 37.648 42.1429 37.9149C42.1721 38.1818 42.051 38.4413 41.8279 38.593C38.4898 40.868 35.1735 42.8411 31.9433 44.4876C30.9196 47.7324 29.6523 50.4332 28.3573 52.6411C33.756 54.658 38.4417 54.6886 38.5015 54.6886C38.834 54.6886 39.1242 54.9132 39.2073 55.2355C39.2904 55.5578 39.146 55.8947 38.8558 56.0565C32.235 59.7344 21.6956 60.7699 21.2508 60.8122C21.2275 60.8107 21.2042 60.8122 21.1808 60.8122ZM27.5756 53.9099C26.059 56.2636 24.5685 57.9538 23.4544 59.0578C26.3681 58.629 31.4767 57.6899 35.716 55.9384C33.686 55.689 30.7475 55.1349 27.5756 53.9099ZM21.5352 48.7532C22.1083 49.3249 22.8229 49.8834 23.7081 50.4157C24.7815 51.0603 25.8708 51.6072 26.9456 52.0709C28.0452 50.2276 29.1346 48.0153 30.0694 45.4093C27.1221 46.8122 24.2608 47.9322 21.5352 48.7532ZM33.8362 35.4795C33.5373 38.0578 33.0765 40.4101 32.5048 42.5524C34.9256 41.2618 37.396 39.7874 39.8869 38.1395C37.6279 37.1828 35.1444 36.0701 33.8362 35.4795Z" fill="#5C7AFF" fill-opacity="0.5"/>
<path d="M26.1392 15.4584C25.9686 15.4584 25.7994 15.3972 25.6652 15.2834C23.3173 13.2738 20.5538 9.18466 20.4371 9.01111C20.249 8.73257 20.2781 8.3607 20.5042 8.11278C20.7288 7.86341 21.0992 7.80507 21.3908 7.96403C21.4069 7.96841 22.7588 8.52549 31.9156 10.0509C32.1796 10.0947 32.3969 10.2784 32.4844 10.5292C32.5733 10.7801 32.5165 11.0601 32.3385 11.2584C29.7748 14.1065 26.5358 15.3607 26.3988 15.4117C26.3142 15.4424 26.2252 15.4584 26.1392 15.4584ZM22.8186 9.83799C23.7388 11.0761 25.0644 12.7488 26.2777 13.8761C27.0229 13.5363 28.6942 12.6832 30.2794 11.254C26.5125 10.6109 24.2142 10.153 22.8186 9.83799Z" fill="#5C7AFF" fill-opacity="0.5"/>
<path d="M31.8544 35.5833C31.7552 35.5833 31.6546 35.5629 31.5613 35.522C31.271 35.3937 31.096 35.0933 31.1296 34.7783C31.5554 30.7693 25.4042 29.1608 25.3415 29.1462C25.0877 29.082 24.8865 28.8852 24.8179 28.6329C24.7494 28.3806 24.8208 28.1093 25.006 27.9241C25.3079 27.6223 32.5004 20.4896 41.5246 16.5725C41.7769 16.4631 42.0627 16.5039 42.2756 16.6746C42.4871 16.8466 42.5848 17.1223 42.5294 17.3877C40.7998 25.7643 32.744 34.9518 32.4027 35.3383C32.2583 35.4973 32.0571 35.5833 31.8544 35.5833ZM26.9135 28.1239C28.6402 28.7729 31.6648 30.275 32.4304 33.0181C34.5435 30.3814 39.0542 24.3075 40.7385 18.531C34.3408 21.6081 28.9538 26.2485 26.9135 28.1239Z" fill="#5C7AFF" fill-opacity="0.5"/>
<path d="M19.0736 41.3584L18.3809 40.075C21.1269 38.5948 24.2725 35.8707 26.8494 32.7046C24.6561 34.2067 23.4004 35.2348 23.3611 35.2684L22.4292 34.1455C22.4861 34.0988 25.0017 32.0353 29.1827 29.4496C30.3304 27.6034 31.2127 25.7046 31.6663 23.8846C31.7436 23.5755 31.8106 23.2765 31.8646 22.9878C29.0573 21.9859 26.4673 21.3924 24.6881 21.1371C24.4184 21.0992 24.1938 20.914 24.1034 20.6588C24.0129 20.4036 24.0727 20.1178 24.255 19.9194C24.379 19.7853 27.3409 16.6119 31.0421 14.8692C31.3294 14.7336 31.6736 14.8007 31.8894 15.0355C31.9871 15.1419 33.9894 17.3907 33.4804 22.0428C35.1648 22.699 36.9002 23.4967 38.5715 24.4461C42.595 22.6378 47.164 21.0103 52.0304 20.0274C52.2813 19.9778 52.5598 20.0682 52.7319 20.2724C52.9025 20.4765 52.9492 20.758 52.8529 21.0059C50.9571 25.8651 45.8733 31.0553 45.6575 31.274C45.5102 31.4228 45.309 31.4971 45.099 31.4898C44.8904 31.4782 44.6979 31.379 44.5667 31.2157C42.9333 29.1623 40.7983 27.4619 38.4956 26.078C35.3238 27.5421 32.515 29.1084 30.2065 30.5244C27.2606 35.1226 22.8142 39.3444 19.0736 41.3584ZM40.0925 25.3692C41.9738 26.5826 43.7252 28.0088 45.1733 29.6684C46.3808 28.3588 49.2785 25.0484 50.9221 21.7613C47.0575 22.6509 43.4 23.9386 40.0925 25.3692ZM33.2486 23.5113C33.2004 23.749 33.145 23.9926 33.0838 24.2405C32.7775 25.464 32.2904 26.7211 31.6663 27.9753C33.2646 27.0624 35.0336 26.1203 36.9425 25.2073C35.7204 24.5598 34.4736 23.9969 33.2486 23.5113ZM26.32 19.9384C27.9402 20.2563 29.9367 20.7755 32.0673 21.5221C32.289 18.8344 31.5627 17.188 31.1238 16.4588C29.1171 17.5059 27.3598 18.9788 26.32 19.9384Z" fill="#5C7AFF" fill-opacity="0.5"/>
<path d="M26.3229 26.9792C26.3229 33.3667 21 38.4417 17.1646 42.1459C16.5229 42.773 14.35 42.875 14.35 42.875C14.8896 42.3209 15.5021 41.7375 16.1583 41.1105C19.8041 37.5813 24.8646 32.7542 24.8646 26.9792C24.8646 20.1396 22.1083 17.4417 19.9354 15.2834C18.9729 14.3063 18.1562 13.373 17.6604 12.2355L18.1125 12.0459C18.6083 12.2646 19.1771 12.5126 19.6146 12.7021C19.9646 13.2126 20.4312 13.7084 20.9708 14.248C23.2021 16.4792 26.3229 19.5417 26.3229 26.9792Z" fill="#5C7AFF" fill-opacity="0.5"/>
<path d="M62.6135 28.8662C62.6135 28.8662 61.7312 28.9916 61.4833 29.0208C48.7083 30.4354 35.525 34.1104 27.9854 37.1291C25.2583 38.2229 22.4292 39.5499 19.8479 41.0374C19.8333 41.052 19.8187 41.052 19.7896 41.0666C18.2729 41.9416 14.5833 43.7499 11.5938 45.3395C15.9687 40.6875 24.1646 37.1 27.4312 35.7875C34.825 32.827 47.5271 29.2541 60.025 27.7229C58.5521 26.002 54.95 22.3562 47.8625 19.6437C43.7208 18.0395 37.4208 17.1354 31.8646 16.3333C23.0271 15.0645 17.9958 14.2187 17.5146 11.8125C17.4125 11.3312 17.4854 10.85 17.7042 10.3833C18.1854 11.1708 18.8708 11.725 19.3229 12.0458C19.5417 12.1916 19.7021 12.2791 19.7604 12.3083L19.775 12.3229C21.8458 13.4166 27.4312 14.2187 32.0833 14.8895C37.7125 15.7062 44.0854 16.625 48.3875 18.2729C58.4062 22.1375 61.8625 27.6645 62.0083 27.8979C62.1396 28.1166 62.6135 28.8662 62.6135 28.8662Z" fill="#5C7AFF" fill-opacity="0.5"/>
</svg>
