<svg width="70" height="70" viewBox="0 0 70 70" fill="none" xmlns="http://www.w3.org/2000/svg">
<path d="M6.08016 24.978C0.552345 40.9511 9.02016 58.3822 24.9944 63.9101C40.9686 69.4379 58.3997 60.9711 63.9275 44.9969C69.4553 29.0227 60.9875 11.5927 45.0144 6.0649C29.0412 0.537086 11.6091 9.0038 6.08016 24.978Z" fill="#5C7AFF" fill-opacity="0.5"/>
<path d="M52.769 52.768C42.9493 62.5844 27.0309 62.5822 17.2145 52.7625C7.3981 42.9428 7.40138 27.0244 17.2211 17.208C27.0408 7.39156 42.9592 7.39375 52.7756 17.2134C54.752 19.1909 56.3861 21.4845 57.6078 24.0002C62.2923 33.6405 60.3498 45.1905 52.769 52.768Z" fill="#090E16"/>
<path d="M63.5075 21.1346C55.8567 5.38789 36.89 -1.17461 21.1422 6.47508C13.58 10.149 7.7875 16.6765 5.0389 24.6215C-0.696722 41.1655 8.06531 59.2266 24.6105 64.9612C41.1556 70.6957 59.2156 61.9337 64.9512 45.3896C67.7337 37.438 67.2142 28.7012 63.5075 21.1346ZM62.8852 44.636C57.5466 60.036 40.7345 68.1932 25.3334 62.8557C9.93234 57.5182 1.77515 40.7062 7.11265 25.3051C12.4502 9.90398 29.2633 1.7468 44.6644 7.08539C52.0592 9.64914 58.1339 15.0446 61.5508 22.0862C64.9688 29.1277 65.4478 37.2401 62.8852 44.636Z" fill="#5C7AFF" fill-opacity="0.5"/>
<path d="M50.4503 50.4493C50.0237 50.8759 50.0237 51.5682 50.4503 51.9948L51.9958 53.5403C52.4223 53.9668 53.1147 53.9668 53.5412 53.5403C53.9678 53.1137 53.9678 52.4213 53.5412 51.9948L51.9958 50.4493C51.5692 50.0228 50.8779 50.0228 50.4503 50.4493Z" fill="#5C7AFF" fill-opacity="0.5"/>
<path d="M55.1502 45.873C54.6165 45.5897 53.9547 45.7931 53.6726 46.3258C53.4035 46.8333 53.573 47.4633 54.0608 47.7662L55.9541 48.8556C56.4813 49.1564 57.1529 48.9726 57.4536 48.4455C57.7544 47.9183 57.5707 47.2467 57.0435 46.9459L55.1502 45.873Z" fill="#5C7AFF" fill-opacity="0.5"/>
<path d="M41.3842 55.6816C40.8013 55.8369 40.4534 56.4363 40.6098 57.0193C40.6109 57.0215 40.6109 57.0237 40.612 57.0269L41.1764 59.1368C41.3569 59.7132 41.9705 60.0337 42.5458 59.8532C43.0883 59.6837 43.4098 59.1269 43.2863 58.5724L42.7219 56.4626C42.5698 55.8785 41.9727 55.5285 41.3886 55.6805C41.3864 55.6816 41.3842 55.6816 41.3842 55.6816Z" fill="#5C7AFF" fill-opacity="0.5"/>
<path d="M57.0281 40.6099C56.4386 40.4787 55.8545 40.8494 55.7233 41.439C55.5997 41.9935 55.9212 42.5502 56.4637 42.7197L58.5736 43.2841C59.1631 43.4154 59.7472 43.0446 59.8784 42.4551C60.002 41.9005 59.6805 41.3438 59.138 41.1743L57.0281 40.6099Z" fill="#5C7AFF" fill-opacity="0.5"/>
<path d="M46.2613 53.6651C45.7417 53.9691 45.5656 54.6363 45.8675 55.157L46.9492 57.0426C47.2325 57.5763 47.8942 57.7787 48.4269 57.4954C48.9606 57.2121 49.163 56.5504 48.8797 56.0177C48.8677 55.9959 48.8556 55.974 48.8425 55.9532L47.7531 54.0599C47.4491 53.5393 46.7819 53.3632 46.2613 53.6651Z" fill="#5C7AFF" fill-opacity="0.5"/>
<path d="M34.5516 11.2546C35.1499 11.1715 35.5666 10.6191 35.4835 10.0219C35.4189 9.55819 35.0657 9.18632 34.6052 9.09882C33.6919 9.08569 32.7786 9.12179 31.8686 9.2071C31.2649 9.22679 30.7924 9.73319 30.8132 10.3358C30.8328 10.9396 31.3393 11.4121 31.9419 11.3913C31.9868 11.3902 32.0327 11.3858 32.0775 11.3782C32.9 11.2929 33.7258 11.2513 34.5516 11.2546Z" fill="#5C7AFF" fill-opacity="0.5"/>
<path d="M12.5235 26.7129C14.9461 19.7588 20.5483 14.3808 27.5954 12.2436C28.174 12.0708 28.5021 11.4616 28.3293 10.883C28.1565 10.3044 27.5472 9.9763 26.9686 10.1491C19.2719 12.4908 13.1535 18.3621 10.4979 25.956C10.2835 26.5204 10.5668 27.1515 11.1311 27.3658C11.6955 27.5802 12.3266 27.2969 12.541 26.7326C12.5486 26.714 12.5552 26.6943 12.5607 26.6746L12.5235 26.7129Z" fill="#5C7AFF" fill-opacity="0.5"/>
<path d="M45.9474 25.3825C45.8566 25.0358 45.709 24.7361 45.5011 24.4966L33.1779 36.9478L34.7693 38.513L44.0235 29.1264C44.0508 29.1002 46.0458 27.1314 45.9474 25.3825Z" fill="#5C7AFF" fill-opacity="0.5"/>
<path d="M33.9981 38.827L32.5073 37.3613L30.5845 39.352L33.9981 38.827Z" fill="#5C7AFF" fill-opacity="0.5"/>
<path d="M34.6785 39.4966L29.7063 40.2611L20.5931 49.6936L24.418 53.4539L24.6094 53.4572L23.6524 49.4924C23.6524 49.4924 28.9242 47.0981 35.9756 40.7708L34.6785 39.4966Z" fill="#5C7AFF" fill-opacity="0.5"/>
<path d="M20.0616 50.2437L17.0898 53.3204L23.3067 53.433L20.0616 50.2437Z" fill="#5C7AFF" fill-opacity="0.5"/>
<path d="M44.5626 29.6688L35.3149 39.0488L36.5432 40.2563C36.6679 40.1426 36.7882 40.0376 36.9129 39.9216C43.5771 33.742 44.9782 31.106 45.687 28.3027C45.1554 29.0826 44.6096 29.624 44.5626 29.6688Z" fill="#5C7AFF" fill-opacity="0.5"/>
<path d="M32.632 36.411L44.8929 24.021C43.9359 23.5157 42.4604 23.5802 40.7421 24.1993C37.3242 25.4298 33.2226 29.9415 33.2226 29.9415L29.9326 33.7576L32.632 36.411Z" fill="#5C7AFF" fill-opacity="0.5"/>
<path d="M29.4317 34.3384L26.3867 37.8712L31.9692 36.8321L29.4317 34.3384Z" fill="#5C7AFF" fill-opacity="0.5"/>
<path d="M47.577 21.5939C47.5048 21.5195 47.4655 21.4178 47.4698 21.3139C47.4731 21.21 47.5191 21.1116 47.5967 21.0427L51.9914 17.1063C51.1995 16.5036 50.2228 16.1328 49.1509 16.1328C46.5456 16.1328 44.4336 18.2448 44.4336 20.8502C44.4336 23.4555 46.5456 25.5675 49.1509 25.5675C49.8225 25.5675 50.458 25.4231 51.0366 25.1694L47.577 21.5939Z" fill="#5C7AFF" fill-opacity="0.5"/>
<path d="M48.4028 21.3477L51.7333 24.7897C53.0163 23.9465 53.8661 22.4994 53.8661 20.849C53.8661 19.5933 53.3674 18.4602 52.5678 17.6147L48.4028 21.3477ZM52.7056 22.3201C52.6389 22.4546 52.5033 22.5312 52.3633 22.5312C52.3064 22.5312 52.2474 22.518 52.1927 22.4907C52.0035 22.3966 51.9269 22.1669 52.022 21.9766C52.4694 21.083 52.1697 20.429 52.1577 20.4016C52.068 20.2124 52.1467 19.9838 52.3349 19.8919C52.523 19.8012 52.7494 19.8744 52.8435 20.0626C52.8631 20.103 53.3313 21.0688 52.7056 22.3201Z" fill="#5C7AFF" fill-opacity="0.5"/>
</svg>
