<svg width="70" height="70" viewBox="0 0 70 70" fill="none" xmlns="http://www.w3.org/2000/svg">
<path d="M35 8.75C15.6698 8.75 0 19.3827 0 32.5004C0 45.6181 15.6698 56.2508 35 56.2508C54.3302 56.2508 70 45.6181 70 32.5004C70 19.3827 54.3302 8.75 35 8.75ZM38.6458 51.0416C23.746 51.0416 11.6667 43.206 11.6667 33.5417C11.6667 23.8773 23.746 16.0417 38.6458 16.0417C53.5456 16.0417 65.625 23.8773 65.625 33.5417C65.625 43.206 53.5456 51.0416 38.6458 51.0416Z" fill="url(#paint0_linear_2112_81)"/>
<path d="M56.9493 48.8091C56.1064 47.431 54.8537 46.3751 53.3881 45.7393C58.3479 44.5129 62.0302 40.046 62.0302 34.7085C62.0302 28.4274 56.9362 23.3335 50.6552 23.3335H29.1681V61.2501H39.2787V46.0835H42.1298C43.54 46.0835 44.8364 46.8491 45.5145 48.0858L52.7552 61.2501H64.5574L56.9493 48.8091ZM39.2802 30.9168H48.1279C50.2206 30.9168 51.9195 32.6158 51.9195 34.7085C51.9195 36.8012 50.2206 38.5002 48.1279 38.5002H39.2802V30.9168Z" fill="url(#paint1_linear_2112_81)"/>
<defs>
<linearGradient id="paint0_linear_2112_81" x1="11.3356" y1="10.1383" x2="43.4846" y2="40.5169" gradientUnits="userSpaceOnUse">
<stop stop-color="#5C7AFF" stop-opacity="0.5"/>
<stop offset="1" stop-color="#5C7AFF" stop-opacity="0.5"/>
</linearGradient>
<linearGradient id="paint1_linear_2112_81" x1="36.6391" y1="20.7829" x2="47.11" y2="51.4574" gradientUnits="userSpaceOnUse">
<stop offset="0.003" stop-color="#5C7AFF" stop-opacity="0.5"/>
<stop offset="1" stop-color="#5C7AFF" stop-opacity="0.5"/>
</linearGradient>
</defs>
</svg>
