<svg width="70" height="70" viewBox="0 0 70 70" fill="none" xmlns="http://www.w3.org/2000/svg">
<path d="M64.1404 34.4678C64.241 28.2539 62.841 20.8645 59.9244 12.1947L57.6377 5.396L54.5315 11.8608C54.3652 12.2064 54.1756 12.5447 53.9773 12.8787C48.8746 8.49787 42.2538 5.8335 35 5.8335C18.8913 5.8335 5.83337 18.8914 5.83337 35.0001C5.83337 51.1089 18.8913 64.1668 35 64.1668C51.1088 64.1668 64.1667 51.1089 64.1667 35.0001C64.1667 34.8208 64.1433 34.6472 64.1404 34.4678Z" fill="#5C7AFF" fill-opacity="0.5"/>
<path d="M57.4365 47.4804C52.8821 53.7541 44.8204 54.091 37.2327 53.9583H27.3438H24.5175C30.975 51.6352 34.8177 51.0825 38.7421 49C46.1329 45.1135 53.4392 36.61 54.9602 27.7637C52.1457 36.2746 43.6159 43.5866 35.843 46.5602C30.5171 48.5916 20.898 50.5633 20.898 50.5633L20.5086 50.3518C13.9607 47.0575 13.7623 32.3954 25.6667 27.6617C30.8788 25.5865 35.8648 26.7269 41.4955 25.3385C47.5067 23.8627 54.46 19.2019 57.2892 13.125C60.4567 22.8477 64.2688 38.0712 57.4365 47.4804ZM22.8492 56.0656C22.438 56.576 21.8094 56.875 21.1532 56.875C19.953 56.875 18.973 55.8877 18.973 54.6875C18.973 53.4873 19.9603 52.5 21.1532 52.5C21.6505 52.5 22.1405 52.6721 22.5255 52.99C23.4588 53.7468 23.6046 55.1323 22.8492 56.0656Z" fill="#090E16"/>
</svg>
